<svg xmlns="http://www.w3.org/2000/svg" width="44.576" height="49.94" viewBox="0 0 44.576 49.94"><defs><style>.a{fill:#fa9f0f;}.b{fill:#0e256b;}.c{fill:#e63950;}.d{fill:#e48e66;}.e{fill:#ffe600;}.f{fill:#ff637b;}.g{fill:#f8ec7d;}.h{fill:#f82917;}</style></defs><g transform="translate(-41.78 -16)"><path class="a" d="M309.806,290.591l3.537-1.731.271-.132,8.594,4.217v8.032a7.316,7.316,0,0,1-2.865,5.412l-5.729,3.9-5.73-3.9a6.968,6.968,0,0,1-2.214-2.775,7.421,7.421,0,0,1-.5-1.413,5.269,5.269,0,0,1-.154-1.225v-8.045Z" transform="translate(-235.852 -244.353)"/><path class="b" d="M84.751,26.085v3.946H41.78V26.085L63.265,16Z"/><path class="a" d="M321.218,153.758a2.2,2.2,0,1,1-4.4.062h-3.725a2.2,2.2,0,1,1-2.2-2.2h8.082A2.231,2.231,0,0,1,321.218,153.758Z" transform="translate(-239.136 -121.508)"/><path class="c" d="M354.557,172.788v12.195l-3.537,1.731V172.788Z" transform="translate(-277.066 -140.475)"/><path class="d" d="M84.742,388.357H58.99v-3.469h25.6v2.244A5.27,5.27,0,0,0,84.742,388.357Z" transform="translate(-15.419 -330.508)"/><g transform="translate(44.447 30.11)"><path class="e" d="M192.775,218.378a6.445,6.445,0,1,1-6.445,6.445,6.445,6.445,0,0,1,6.445-6.445Z" transform="translate(-173.958 -211.432)"/><path class="a" d="M79.948,153.758a2.2,2.2,0,1,1-4.4.062H71.821a2.2,2.2,0,1,1-2.2-2.2H77.7A2.232,2.232,0,0,1,79.948,153.758Z" transform="translate(-67.416 -151.618)"/><path class="a" d="M96.532,358.136V359.6H88.59v-1.468l.734-1.468H95.8Z" transform="translate(-86.387 -335.334)"/></g><path class="f" d="M109.75,172.788h3.537v19.131H109.75Z" transform="translate(-60.898 -140.475)"/><path class="g" d="M185.811,85.938h-1.767a.624.624,0,1,1,0-1.249h1.767a.624.624,0,1,1,0,1.249Z" transform="translate(-126.903 -61.542)"/><path class="g" d="M286.6,85.938h-1.768a.624.624,0,0,1,0-1.249H286.6a.624.624,0,0,1,0,1.249Z" transform="translate(-217.207 -61.542)"/><path class="c" d="M230.286,241.853a.841.841,0,1,1,.841-.841.624.624,0,0,0,1.249,0,2.093,2.093,0,0,0-1.465-1.994v-.275a.624.624,0,0,0-1.249,0v.275a2.089,2.089,0,0,0,.624,4.083.841.841,0,1,1,.005,1.681h-.01a.842.842,0,0,1-.836-.84.624.624,0,0,0-1.248,0,2.093,2.093,0,0,0,1.465,1.994v.343a.624.624,0,1,0,1.249,0v-.343a2.089,2.089,0,0,0-.624-4.083Z" transform="translate(-167.022 -199.009)"/><path class="h" d="M349.89,370.25a.622.622,0,0,1-.436-.177l-2.6-2.532a.624.624,0,1,1,.872-.894l2.16,2.107,4.241-4.137a.624.624,0,1,1,.872.894l-4.677,4.562A.623.623,0,0,1,349.89,370.25Z" transform="translate(-273.168 -312.187)"/><path class="a" d="M211.437,49.568a4.278,4.278,0,1,1-4.277,4.278,4.278,4.278,0,0,1,4.277-4.278Zm.438,4.4a.437.437,0,1,0-.128.311A.438.438,0,0,0,211.875,53.964Z" transform="translate(-148.173 -30.076)"/></g></svg>