<svg xmlns="http://www.w3.org/2000/svg" width="23.231" height="18.735" viewBox="0 0 23.231 18.735"><defs><style>.a,.b{fill:none;stroke:#6d757d;stroke-linecap:round;}.a{stroke-miterlimit:10;}.b{stroke-linejoin:round;}</style></defs><g transform="translate(-15.461 -63.415)"><path class="a" d="M126.852,69.529a1.248,1.248,0,0,1-1.759,0L124.061,68.5a1.247,1.247,0,0,1,0-1.758L126.4,64.4a.039.039,0,0,0-.012-.063,4.4,4.4,0,0,0-4.706.916,4.5,4.5,0,0,0-.821,4.5A1.24,1.24,0,0,1,120.507,71l-7.945,7.383a1.872,1.872,0,1,0,2.644,2.642l7.446-7.958a1.24,1.24,0,0,1,1.229-.354,4.562,4.562,0,0,0,4.458-.824,4.486,4.486,0,0,0,.923-4.7.039.039,0,0,0-.062-.01Z" transform="translate(-91.534 -0.013)"/><path class="b" d="M189.286,210.564c-.8-.781-1.171-1.144-1.424-1.391a.838.838,0,0,1-.153-.98.953.953,0,0,1,.161-.212l.72-.7a.857.857,0,0,1,.259-.178.832.832,0,0,1,.918.166l1.534,1.493" transform="translate(-163.735 -136.461)"/><path class="b" d="M277,291.3c1.881,1.75,4.162,3.824,5.052,4.565a.618.618,0,0,1,.043.915l-1.533,1.532a.643.643,0,0,1-.932-.035c-.759-.881-2.805-3.082-4.559-4.914" transform="translate(-247.174 -216.862)"/><path class="b" d="M16.061,69.947l1.351-1.32a.216.216,0,0,1,.157-.062.223.223,0,0,1,.157.062h0a.453.453,0,0,0,.376.127.846.846,0,0,0,.485-.189c.276-.266-.043-.791.2-1.127a9.505,9.505,0,0,1,.908-1.038,9.962,9.962,0,0,1,3.21-2.041A4.928,4.928,0,0,1,24.755,64a3.39,3.39,0,0,1,2.124.72,4.111,4.111,0,0,1,.472.535,3.624,3.624,0,0,0-.423-.127,3.16,3.16,0,0,0-.918-.058,3.669,3.669,0,0,0-1.745.643,2.591,2.591,0,0,0-.956,2.053c-.031.648.125,1.015,1.658,2.548a.3.3,0,0,1-.016.421l-.837.827a.316.316,0,0,1-.438,0,12.154,12.154,0,0,0-2.067-1.752,2.115,2.115,0,0,0-.84-.315,1.417,1.417,0,0,0-.839.178.523.523,0,0,0-.121.092.649.649,0,0,0,.019.922l.079.073a.213.213,0,0,1,0,.3l-1.349,1.318a.216.216,0,0,1-.157.064.223.223,0,0,1-.157-.062l-2.185-2.132A.224.224,0,0,1,16.061,69.947Z" transform="translate(0 0)"/></g></svg>