<svg xmlns="http://www.w3.org/2000/svg" width="24" height="24" viewBox="0 0 24 24"><defs><style>.a{fill:#fff;}</style></defs><path class="a" d="M25.667,19.667a15.147,15.147,0,0,1-4.76-.76,1.361,1.361,0,0,0-1.36.32L16.613,22.16a20.06,20.06,0,0,1-8.787-8.787l2.933-2.947a1.28,1.28,0,0,0,.333-1.333,15.147,15.147,0,0,1-.76-4.76A1.337,1.337,0,0,0,9,3H4.333A1.337,1.337,0,0,0,3,4.333,22.665,22.665,0,0,0,25.667,27,1.337,1.337,0,0,0,27,25.667V21A1.337,1.337,0,0,0,25.667,19.667ZM24.333,15H27A12,12,0,0,0,15,3V5.667A9.327,9.327,0,0,1,24.333,15ZM19,15h2.667A6.669,6.669,0,0,0,15,8.333V11A4,4,0,0,1,19,15Z" transform="translate(-3 -3)"/></svg>