<svg xmlns="http://www.w3.org/2000/svg" width="25.844" height="25.844" viewBox="0 0 25.844 25.844"><defs><style>.a{opacity:0.73;}</style></defs><g class="a" transform="translate(-4 -4)"><path d="M16.922,4A12.922,12.922,0,1,0,29.844,16.922,12.919,12.919,0,0,0,16.922,4Zm0,23.26A10.338,10.338,0,1,1,27.26,16.922,10.352,10.352,0,0,1,16.922,27.26Zm-2.481-11.8a3.4,3.4,0,0,1,.388-1.124,2.247,2.247,0,0,1,.762-.795,2.219,2.219,0,0,1,1.157-.3,2.163,2.163,0,0,1,.84.168,2.04,2.04,0,0,1,1.1,1.15,2.52,2.52,0,0,1,.174.827H21.18a4.623,4.623,0,0,0-.355-1.667,3.867,3.867,0,0,0-.911-1.305,4,4,0,0,0-1.4-.846,5.172,5.172,0,0,0-1.8-.3,5.116,5.116,0,0,0-2.19.433,4.369,4.369,0,0,0-1.551,1.189,5,5,0,0,0-.924,1.751,7.292,7.292,0,0,0-.3,2.113V17.1a7.306,7.306,0,0,0,.3,2.119,4.913,4.913,0,0,0,.924,1.745,4.394,4.394,0,0,0,1.557,1.182,5.166,5.166,0,0,0,2.2.433,4.782,4.782,0,0,0,1.706-.3,4.548,4.548,0,0,0,1.4-.821,3.944,3.944,0,0,0,.956-1.215,3.573,3.573,0,0,0,.388-1.486H18.867a1.84,1.84,0,0,1-.194.749,1.806,1.806,0,0,1-.465.588,2.173,2.173,0,0,1-.678.381,2.39,2.39,0,0,1-.782.129,2.254,2.254,0,0,1-1.157-.3,2.282,2.282,0,0,1-.769-.8,3.39,3.39,0,0,1-.388-1.131,7.625,7.625,0,0,1-.1-1.273v-.355a7.751,7.751,0,0,1,.1-1.292Z"/></g></svg>