<svg xmlns="http://www.w3.org/2000/svg" width="61.828" height="48.491" viewBox="0 0 61.828 48.491"><defs><style>.a{fill:rgba(0,0,0,0.65);}.b{fill:#f8f7f7;}.c{fill:#1c466c;}</style></defs><g transform="translate(-13.4 -19.2)"><path class="a" d="M30.638,35.7l-.144.433H30.06l-.241.144-1.252.77h-.048l.289-.578.482-.193.674-.289v-.048l.674-.241m-5.489.193h0l.433.193.963.385.1.53.241,1.011-1.252.77h1.4l.1.53-.1.048-.337.144-.144.385-.433,1.059L24.86,41.956l-.289.241v.193l-.915-.241-.915-.193-.193.674h-.53l-.241.193-.385.289a17.919,17.919,0,0,1,3.756-7.223m2.889,2.889-.193.289-.337.144.193-.385h.337m-.915,10.738.626.482.289.241.385-.048.722-.1.337.915.193.482.53.1.674.144.385.77.144.289.289.144.1.048c.963.482,1.974,1.011,2.937,1.493l-.048.337-.77,1.107-.193.289.048.337.144,1.445-.289.674-.674.144-.385.1-.193.289-.53.77-.337.433.241.482.048.144-.433,1.059-.578.193-.433.144L30.2,62.9l-.048.193a10.885,10.885,0,0,1-1.252-.77l.144-.53.048-.289-.144-.289-.337-.819.048-1.541V58.52l-.193-.289-.578-.819-.048-.1-.1-.1-1.2-1.059-1.059-1.926.241-.867.1-.337-.1-.193.144-.241.048-.1.048-.1.53-1.445.144.048V49.949l.482-.385M28.471,31.7A18.766,18.766,0,0,0,19.9,47.3l1.493.867,1.541.433.674.867,1.059.77.626-.1.433.193v.144L25.1,52.068l-.433.674.144.337-.385,1.252,1.348,2.456,1.348,1.2.578.819-.048,1.733.433,1.011-.289,1.2a23.4,23.4,0,0,0,2.6,1.589l.482-.482.241-.578.963-.337.722-1.878-.241-.482.53-.77L34.2,59.58l.578-1.348-.144-1.685.915-1.252.144-1.252c-1.2-.626-2.456-1.252-3.66-1.878l-.53-1.2L30.4,50.72l-.578-1.589-1.493.144-1.252-.915-1.348,1.156v.193a7.838,7.838,0,0,1-1.445-.337l-.482-.819v-.915l-.722.1c.1-.578.337-1.4.385-1.782h-.53l-.53.674-.53.241-.722-.433-.1-.915.144-1.011,1.107-.867h.915l.144-.482,1.107.289.819,1.011.144-1.685,1.4-1.156.53-1.252,1.059-.433L29,39.115l1.348-.241.674-.963H29l1.252-.77h.915l1.3-.482.144-.482-.433-.433-.53-.144.144-.482-.385-.77-.867.337.144-.674-1.059-.578-.819,1.445.1.53-.819.289-.53,1.107-.241-1.011-1.4-.578-.241-.77,1.878-1.107.819-.77.1-.867Z" transform="translate(-3.37 -6.481)"/><path class="a" d="M37,32.1h.722l.385-.819c.337-.241.626-.433.963-.674l.722.241c.482.337,1.011.674,1.493,1.011l.722-.674-.819-.337-.385-.77-1.4-.144V29.5l-.482.144c-.1.048-.144.1-.241.1l-.241.53-.144-.289c-.1.048-.241.144-.337.193l.048.53-.578.482Z" transform="translate(-12.236 -5.34)"/><path class="a" d="M45.741,44l.433-.674L45.5,42.8Z" transform="translate(-16.643 -12.236)"/><path class="a" d="M53.145,26.363h.53l.337.144-.385,1.011a25.213,25.213,0,0,1-2.793,1.059l-.337.1-.1.193V27.422l-.385-.289-.337-.241,1.252-.337a11.477,11.477,0,0,1,2.215-.193m0-.963a20.4,20.4,0,0,0-2.456.144l-2.359.626-.53.53,1.637,1.156v.722l-.578.674.963,1.782L50.4,30.7l.722-1.156A26.954,26.954,0,0,0,54.4,28.289l.915-2.263-1.348-.53a2.525,2.525,0,0,0-.819-.1Z" transform="translate(-17.836 -3.215)"/><path class="a" d="M61.837,33.537l-.289-.1h0l-.048.53.53.337.867-.626-.433-.482Z" transform="translate(-24.939 -7.259)"/><path class="a" d="M41.8,33.737l.77.385h.289v-.337l-.626-.385Z" transform="translate(-14.725 -7.362)"/><path class="a" d="M66.33,39.7l-.53.144.144.915.674-.337Z" transform="translate(-27.169 -10.629)"/><path class="b" d="M43.4,28.6Z" transform="translate(-15.555 -4.874)"/><path class="a" d="M37.235,61c-.626.048-1.3.1-1.926.1a19.982,19.982,0,1,1,16.853-9.245c1.011-.53,2.119-1.2,3.13-1.733a21.573,21.573,0,0,0,1.926-9A21.909,21.909,0,1,0,35.309,63.018a23.775,23.775,0,0,0,4.189-.385C38.872,62.151,38.054,61.573,37.235,61Z"/><path class="a" d="M61.074,48.757l1.878,2.167.915-.819.385.482,1.011-.626.337.433h1.011l.578.626-.337,1.107.722.819-.048,1.4.53,1.011-.385.819c-.048.626-.1,1.252-.1,1.878,0,.048.048.1.048.144A2.619,2.619,0,0,1,68.586,58c0-.048,0-.048-.048-.1,0-.385.048-.77.048-1.2v-.241l.289-.674a.971.971,0,0,0,0-.819l-.385-.77.048-1.156a1.15,1.15,0,0,0-.241-.674l-.337-.385.193-.578a1.153,1.153,0,0,0-.193-.963l-.578-.626a.98.98,0,0,0-.722-.289h-.53l-.048-.048a.958.958,0,0,0-.77-.337.813.813,0,0,0-.482.144l-.337.193a.925.925,0,0,0-.578-.193,1.014,1.014,0,0,0-.626.241l-.193.193-1.156-1.3-.482-1.156.385-.578a1.017,1.017,0,0,0-.048-1.156l.53-1.252c.578-.722,1.156-1.4,1.782-2.071l.915-.241,1.156-.144.53.144,1.2,1.2a.951.951,0,0,0,.674.289h.048a.842.842,0,0,0,.674-.337l.289-.337.144-.048,1.011.289c.1,0,.144.048.241.048h.963a.841.841,0,0,0,.578-.193l.674-.482c.048-.048.144-.1.193-.144l.289-.385a.9.9,0,0,0,.193-.77.936.936,0,0,0-.433-.674l-.722-.626a.777.777,0,0,0-.433-.144l-.674-.048c-.241-.337-.482-.674-.77-1.011a.951.951,0,0,0-.674-.289.907.907,0,0,0-.385.1h-.048a1.207,1.207,0,0,0-.193-.337l-.722-.722a.951.951,0,0,0-.674-.289h-.289a.941.941,0,0,0-.722.337.611.611,0,0,0-.289-.048H66.66l-1.107.241c-.048,0-.1.048-.144.048l-.048-.1.337-.193a.978.978,0,0,0,.482-.963.665.665,0,0,0,.144-.193h.241a1.133,1.133,0,0,0,.385-.1l.819.193h.193a1.014,1.014,0,0,0,.626-.241l1.107-.915a.893.893,0,0,0,.337-.578V34.5l.674-.433a.768.768,0,0,0,.337-.433h0a1.014,1.014,0,0,0,.626.241h.1c.1,0,.193-.048.289-.048a17.514,17.514,0,0,1,4.96,8.282l-.289-.289a.951.951,0,0,0-.674-.289.579.579,0,0,0-.385.1.951.951,0,0,0-.578.867V43.6a.946.946,0,0,0,.433.819l.674.433.433.433a1.148,1.148,0,0,0,.53.289l-.1.1-1.107.77c-.048.048-.1.048-.1.1l-.963.915a1.048,1.048,0,0,0-.241,1.107.951.951,0,0,0,.867.578h.048l-.482,1.252-1.4,2.263a.971.971,0,0,0-.144.53v2.359a.434.434,0,0,0,.048.241l.1.433-.626.385c-.048.048-.1.048-.1.1l-.867.722a.842.842,0,0,0-.337.674h0a7.184,7.184,0,0,0,1.011.1l-.048-.048.867-.722.819-.53.385-.433-.241-.915V53.187L76,50.827l.867-2.167v-.482c-.77.048-.819.1-1.252.144l.963-.915,1.2-.867.626-.77v-.241c0-.241.048-.433.048-.674-.289-.289-.241-.53-.385-.819l-.867.77-.482-.482-.77-.53V42.69l.867.867.963-.144c.144.144.337.289.482.433a18.379,18.379,0,0,0-6.356-11.171l-.337.433-.963-.867h.626c-.578-.385-1.2-.963-1.782-1.348l-.241-.193-1.493.337-1.011.578v.53l-1.3.915.433,1.348.819-.578.53.578.578.337.385-1.011-.241-.433.241-.337.819-.626h.385l-.337.578v.77c0-.1.674-.144,1.011-.193l-.963.674-.1.433-1.107.915-1.156-.241V34.6l-.53.289.241.53H65.6l-.241.482-.482-.578c-.193-.482-.385-1.059-.578-1.445h-.626v.674l.385.337v.77l-.144.963.867-.193.193-.193.1.433-.482.241-1.011.193.578.53.144.482h-.722l-1.541.722v1.156H63.1l.433.626.915-.289.385-.915.674-.433.144-.337,1.107-.241.578.674.674.337-.385.722.578-.193.289-.819-.722-1.059h.289l.722.722.144,1.011.674.77.144-1.107.385-.193a7.887,7.887,0,0,1,.963,1.252l1.107.1.674.385-.241.433-.674.482h-.963l-1.252-.337-.674.144-.482.53-1.4-1.4-.963-.241-1.4.144-1.252.337c-.722.819-1.4,1.589-2.071,2.456l-.819,1.926.385.433L60.4,46.927Zm2.7-9.438-.193-.193.241-.144h.1Z" transform="translate(-24.369 -5.963)"/><path class="c" d="M94.722,81.72c-1.038-1.428-4.218-.909-5.516,0s-9.67,5.516-9.67,5.516-5.516-.649-8.177-.909-2.791,1.558-1.428,2.012a13.357,13.357,0,0,1,3.05,1.817l-6.1,3.44s-3.05-1.038-6.1-1.882-3.7.779-2.271,1.882c1.428,1.168,7.658,5.581,7.658,5.581l9.151-3.7s0,2.4-.13,3.7,1.038,3.31,2.4,1.168C79.016,98.2,82.067,92.3,82.067,92.3s8.826-5.516,10.449-6.62S95.76,83.083,94.722,81.72Zm-.973.973c-.065.195-.26.779-1.947,1.882-1.622,1.1-10.319,6.555-10.384,6.62l-.324.195-.195.324c0,.065-3.05,5.841-4.413,7.918h0c0-.13-.065-.26,0-.324.13-1.3.13-3.7.13-3.829V93.532L66.3,97.685c-1.493-1.1-5.451-3.959-6.814-5a3.256,3.256,0,0,1,.909.195c2.985.844,6.036,1.882,6.1,1.882l.519.195,8.307-4.673L73.76,89.119a16.457,16.457,0,0,0-2.336-1.493c2.726.26,7.788.844,7.853.844l.389.065.389-.195c.844-.454,8.5-4.673,9.8-5.581a4.683,4.683,0,0,1,2.466-.649,1.845,1.845,0,0,1,1.233.324C93.748,82.564,93.748,82.629,93.748,82.694Z" transform="translate(-19.821 -33.595)"/></g></svg>