<svg xmlns="http://www.w3.org/2000/svg" width="40.309" height="40.287" viewBox="0 0 40.309 40.287"><defs><style>.a{fill:#1c466c;}.b{fill:#ffe9a6;}.c{fill:rgba(0,0,0,0.65);}</style></defs><g transform="translate(-597 -703.868)"><g transform="translate(595 701.846)"><g transform="translate(36.934 2)"><circle class="a" cx="2.5" cy="2.5" r="2.5" transform="translate(0.22 0.154)"/></g><g transform="translate(2 36.934)"><circle class="a" cx="2.5" cy="2.5" r="2.5" transform="translate(0.154 0.22)"/></g><g transform="translate(36.934 36.934)"><circle class="a" cx="2.5" cy="2.5" r="2.5" transform="translate(0.22 0.22)"/></g><g transform="translate(2 2)"><circle class="a" cx="2.5" cy="2.5" r="2.5" transform="translate(0.154 0.154)"/></g><g transform="translate(18.123 18.123)"><circle class="a" cx="4" cy="4" r="4" transform="translate(0.031 0.031)"/></g><g transform="translate(20.811 20.811)"><circle class="b" cx="1" cy="1" r="1" transform="translate(0.344 0.344)"/></g><path class="c" d="M33.278,5.7,31.263,2.337a.7.7,0,0,0-1.152,0L28.1,5.7a.672.672,0,0,0,.576,1.018h1.344v9.405h1.344V6.713H32.7A.672.672,0,0,0,33.278,5.7Z" transform="translate(-8.533 -0.011)"/><path class="c" d="M33.287,50.746a.672.672,0,0,0-.584-.341H31.359V41H30.015v9.405H28.672a.671.671,0,0,0-.576,1.017l2.015,3.359a.671.671,0,0,0,1.151,0l2.015-3.359A.671.671,0,0,0,33.287,50.746Z" transform="translate(-8.533 -12.799)"/><path class="c" d="M48.107,10.691a.669.669,0,0,0-.638-.177l-3.8.95a.672.672,0,0,0-.312,1.127l.95.95-6.651,6.651.95.95,6.651-6.651.95.95a.671.671,0,0,0,.475.2.683.683,0,0,0,.179-.024.672.672,0,0,0,.472-.484l.95-3.8A.671.671,0,0,0,48.107,10.691Z" transform="translate(-11.702 -2.788)"/><path class="c" d="M14.492,45.257l6.651-6.651-.95-.95-6.651,6.651-.95-.95a.672.672,0,0,0-1.127.312l-.95,3.8a.672.672,0,0,0,.815.815l3.8-.95a.672.672,0,0,0,.312-1.127Z" transform="translate(-2.788 -11.702)"/><path class="c" d="M48.284,47.469l-.95-3.8a.672.672,0,0,0-1.127-.312l-.95.95-6.651-6.651-.95.95,6.651,6.651-.95.95a.672.672,0,0,0,.312,1.127l3.8.95a.679.679,0,0,0,.163.02.671.671,0,0,0,.651-.834Z" transform="translate(-11.702 -11.702)"/><path class="c" d="M21.141,20.192,14.49,13.541l.95-.95a.672.672,0,0,0-.312-1.127l-3.8-.95a.672.672,0,0,0-.815.815l.95,3.8a.672.672,0,0,0,.472.484.683.683,0,0,0,.179.024.671.671,0,0,0,.475-.2l.95-.95,6.651,6.651Z" transform="translate(-2.787 -2.788)"/><path class="c" d="M54.782,30.111,51.423,28.1a.672.672,0,0,0-1.018.576v1.344H41v1.344h9.405V32.7a.672.672,0,0,0,1.018.576l3.359-2.015a.672.672,0,0,0,0-1.151Z" transform="translate(-12.799 -8.533)"/><path class="c" d="M16.108,30.015H6.7V28.672A.671.671,0,0,0,5.686,28.1L2.326,30.111a.671.671,0,0,0,0,1.151l3.359,2.015A.672.672,0,0,0,6.7,32.7V31.359h9.405Z" transform="translate(0 -8.533)"/></g></g></svg>