<svg xmlns="http://www.w3.org/2000/svg" width="61.027" height="40.696" viewBox="0 0 61.027 40.696"><defs><style>.a{fill:none;}.b{fill:#1c466c;}.c{fill:rgba(0,0,0,0.65);}</style></defs><g transform="translate(-1018.37 -703.304)"><g transform="translate(2418.093 -2921.679)"><g transform="translate(-1338.513 3624.984) rotate(90)"><g transform="translate(0 0)"><g transform="translate(0.423 0.184)"><rect class="a" width="39.879" height="39.879" transform="translate(0)"/></g><g transform="matrix(0.966, -0.259, 0.259, 0.966, 0, 8.604)"><g transform="translate(0 0)"><path class="b" d="M2.408,3.806.081,7.828a.587.587,0,0,0,.133.748L2.674,10.5a8.412,8.412,0,0,0-.083,1.13,8.871,8.871,0,0,0,.083,1.147L.214,14.709a.587.587,0,0,0-.133.748L2.408,19.48a.588.588,0,0,0,.715.249l2.892-1.163a8.547,8.547,0,0,0,1.961,1.147l.432,3.075a.6.6,0,0,0,.582.482h4.654a.6.6,0,0,0,.582-.5l.432-3.075a8.914,8.914,0,0,0,1.961-1.147l2.892,1.163a.588.588,0,0,0,.715-.249l2.327-4.022a.587.587,0,0,0-.133-.748l-2.46-1.928a8.412,8.412,0,0,0,.083-1.13,8.871,8.871,0,0,0-.083-1.147l2.46-1.928a.587.587,0,0,0,.133-.748L20.225,3.79a.588.588,0,0,0-.715-.249L16.618,4.7a8.547,8.547,0,0,0-1.961-1.147L14.225.482A.6.6,0,0,0,13.643,0H8.989a.6.6,0,0,0-.582.5L7.976,3.573A8.914,8.914,0,0,0,6.014,4.72L3.122,3.557A.588.588,0,0,0,2.408,3.806Zm8.909,4.5a3.324,3.324,0,1,1-3.324,3.324A3.334,3.334,0,0,1,11.316,8.31Z" transform="translate(10.609 9.906)"/><path class="b" d="M.136,5.468l1.6,1.23a5.2,5.2,0,0,0-.066.731,3.522,3.522,0,0,0,.066.731L.152,9.391a.38.38,0,0,0-.083.482l1.5,2.576a.388.388,0,0,0,.465.166l1.845-.748a5.016,5.016,0,0,0,1.263.731l.283,1.961a.359.359,0,0,0,.349.332H8.745a.361.361,0,0,0,.366-.316l.283-1.961a5.959,5.959,0,0,0,1.263-.731l1.845.748a.382.382,0,0,0,.465-.166l1.5-2.576a.38.38,0,0,0-.083-.482L12.8,8.177a5.388,5.388,0,0,0,0-1.463l1.579-1.23A.38.38,0,0,0,14.463,5l-1.5-2.576A.388.388,0,0,0,12.5,2.26l-1.845.748a5.016,5.016,0,0,0-1.263-.731L9.111.316A.374.374,0,0,0,8.745,0H5.77A.361.361,0,0,0,5.4.316L5.122,2.277a5.46,5.46,0,0,0-1.247.731L2.014,2.26a.382.382,0,0,0-.465.166L.053,5A.361.361,0,0,0,.136,5.468ZM7.266,5.2A2.244,2.244,0,1,1,5.022,7.446,2.245,2.245,0,0,1,7.266,5.2Z" transform="translate(0 0)"/></g></g></g><rect class="c" width="3.021" height="26.586" transform="translate(18.55 34.625)"/><rect class="c" width="2.417" height="16.314" transform="translate(23.384 34.625)"/><rect class="c" width="2.417" height="18.731" transform="translate(14.321 32.208)"/><rect class="c" width="2.417" height="18.731" transform="translate(9.487 24.353)"/><rect class="c" width="2.417" height="7.855" transform="translate(5.257 22.54)"/></g></g></g></svg>