<svg xmlns="http://www.w3.org/2000/svg" width="46" height="36" viewBox="0 0 46 36"><defs><style>.a,.b,.c{fill:none;stroke-linejoin:round;stroke-width:2px;}.a,.c{stroke:#1c466c;}.a{stroke-linecap:square;}.b{stroke:rgba(0,0,0,0.65);}.b,.c{stroke-linecap:round;}</style></defs><g transform="translate(-1470 -708)"><path class="a" d="M19,40h5.5A2.5,2.5,0,0,0,27,37.5h0A2.5,2.5,0,0,0,24.5,35h-3A2.5,2.5,0,0,1,19,32.5h0A2.5,2.5,0,0,1,21.5,30H27" transform="translate(1461 695)"/><line class="a" y1="2" transform="translate(1484 723)"/><line class="a" y1="2" transform="translate(1484 735)"/><path class="b" d="M24,48H47a2,2,0,0,0,0-4H32.367a12.941,12.941,0,0,1-8.7,3.966A1.939,1.939,0,0,0,24,48Z" transform="translate(1461 695)"/><path class="b" d="M52,38H35.638a12.923,12.923,0,0,1-1.7,4H52a2,2,0,0,0,0-4Z" transform="translate(1461 695)"/><path class="b" d="M35.949,36H49a2,2,0,0,0,0-4H35.638A13.015,13.015,0,0,1,36,35C36,35.338,35.975,35.669,35.949,36Z" transform="translate(1461 695)"/><path class="b" d="M43,31a2,2,0,0,0,0-4H33.233a12.957,12.957,0,0,1,2.133,4Z" transform="translate(1461 694)"/><path class="b" d="M31.3,25H46a2,2,0,0,0,0-4H23a1.994,1.994,0,0,0-1.8,1.139A12.765,12.765,0,0,1,31.3,25Z" transform="translate(1461 694)"/><path class="b" d="M26,20H49a2,2,0,0,0,0-4H26a2,2,0,0,0,0,4Z" transform="translate(1461 693)"/><circle class="c" cx="13" cy="13" r="13" transform="translate(1471 717)"/></g></svg>