<svg xmlns="http://www.w3.org/2000/svg" width="32.343" height="32.343" viewBox="0 0 32.343 32.343"><defs><style>.a{fill:#ff4600;}</style></defs><path class="a" d="M16.172,32.343A16.172,16.172,0,1,1,32.343,16.172,16.19,16.19,0,0,1,16.172,32.343Zm0-30.322a14.15,14.15,0,1,0,14.15,14.15A14.166,14.166,0,0,0,16.172,2.021Zm0,0"/><g transform="translate(-0.129)"><path class="a" d="M237.363,108.016a1.348,1.348,0,1,1-1.348-1.348A1.348,1.348,0,0,1,237.363,108.016Zm0,0" transform="translate(-219.844 -99.93)"/><path class="a" d="M206.037,205.476a1.011,1.011,0,0,1-1.011-1.011V194.021h-1.348a1.011,1.011,0,0,1,0-2.021h2.358a1.011,1.011,0,0,1,1.011,1.011v11.455A1.011,1.011,0,0,1,206.037,205.476Zm0,0" transform="translate(-189.865 -179.871)"/><path class="a" d="M199.075,375.353h-6.064a1.011,1.011,0,1,1,0-2.021h6.064a1.011,1.011,0,1,1,0,2.021Zm0,0" transform="translate(-179.871 -349.748)"/></g></svg>