<svg xmlns="http://www.w3.org/2000/svg" width="8.086" height="18.867" viewBox="0 0 8.086 18.867"><defs><style>.a{fill:#6dba3c;}</style></defs><path class="a" d="M237.363,108.016a1.348,1.348,0,1,1-1.348-1.348A1.348,1.348,0,0,1,237.363,108.016Zm0,0" transform="translate(-231.973 -106.668)"/><path class="a" d="M206.037,205.476a1.011,1.011,0,0,1-1.011-1.011V194.021h-1.348a1.011,1.011,0,0,1,0-2.021h2.358a1.011,1.011,0,0,1,1.011,1.011v11.455A1.011,1.011,0,0,1,206.037,205.476Zm0,0" transform="translate(-201.994 -186.61)"/><path class="a" d="M199.075,375.353h-6.064a1.011,1.011,0,1,1,0-2.021h6.064a1.011,1.011,0,1,1,0,2.021Zm0,0" transform="translate(-192 -356.487)"/></svg>