<svg xmlns="http://www.w3.org/2000/svg" width="40" height="40" viewBox="0 0 40 40">
  <g id="oneway" transform="translate(-8411 2026)">
    <g id="noun_round_trip_flight_1211382_1_" data-name="noun_round trip flight_1211382 (1)" transform="translate(8384.391 -2091.744)">
      <g id="Group_477" data-name="Group 477" transform="translate(25.084 65.205)">
        <path id="Path_1265" data-name="Path 1265" d="M415.513,202.822a1.776,1.776,0,0,1-.292.54A1.777,1.777,0,0,0,415.513,202.822Z" transform="translate(-383.021 -191.467)" fill="none"/>
        <path id="Path_1266" data-name="Path 1266" d="M400.694,189.649a1.774,1.774,0,0,0-1.427.433A1.775,1.775,0,0,1,400.694,189.649Z" transform="translate(-368.415 -179.365)" fill="none"/>
        <path id="Path_1267" data-name="Path 1267" d="M400.183,189.959a.363.363,0,0,0-.31-.31,1.775,1.775,0,0,0-1.427.433c-.026.023-.052.048-.077.073l0,0,.032-.021a1.466,1.466,0,0,1,1.344-.185.33.33,0,0,1,.136.136,1.517,1.517,0,0,1-.207,1.378,1.815,1.815,0,0,0,.14-.158,1.773,1.773,0,0,0,.366-1.346Z" transform="translate(-367.603 -179.38)" fill="none"/>
        <path id="Path_1270" data-name="Path 1270" d="M301.927,203.032l-.259-.259a.353.353,0,0,0-.47-.026l-.9.716,1.427.317.223-.278A.352.352,0,0,0,301.927,203.032Z" transform="translate(-277.617 -191.333)" fill="#05164d"/>
        <path id="Path_1271" data-name="Path 1271" d="M241.558,190.713l-.259-.259a.353.353,0,0,0-.47-.026l-.78.624,1.392.309.143-.179A.353.353,0,0,0,241.558,190.713Z" transform="translate(-222.328 -180.029)" fill="#05164d"/>
        <path id="Path_1272" data-name="Path 1272" d="M153.926,349.644l-.469.469,4.36,3.114,2.37-3.217-5.692-.569A.7.7,0,0,0,153.926,349.644Z" transform="translate(-142.931 -326.067)" fill="#05164d"/>
        <path id="Path_1273" data-name="Path 1273" d="M166.56,189.944l-.785.785,8.467,3.528,3.666,2.538,3.815-3.815-14.512-3.225A.705.705,0,0,0,166.56,189.944Z" transform="translate(-154.403 -179.542)" fill="#05164d"/>
        <path id="Path_1274" data-name="Path 1274" d="M215.755,379.884l3.114,4.36.469-.469a.7.7,0,0,0,.2-.569l-.569-5.692Z" transform="translate(-200.07 -351.933)" fill="#05164d"/>
        <path id="Path_1275" data-name="Path 1275" d="M408.1,350.85l-.259-.259a.353.353,0,0,0-.47-.026l-.179.143.309,1.392.625-.78A.353.353,0,0,0,408.1,350.85Z" transform="translate(-375.671 -326.975)" fill="#05164d"/>
        <path id="Path_1276" data-name="Path 1276" d="M394.714,289.259l-.259-.259a.353.353,0,0,0-.47-.026l-.279.223.317,1.427.716-.9A.352.352,0,0,0,394.714,289.259Z" transform="translate(-363.304 -270.462)" fill="#05164d"/>
        <path id="Path_1277" data-name="Path 1277" d="M337.435,261.722l2.538,3.666,3.528,8.467.785-.785a.706.706,0,0,0,.19-.652l-3.225-14.512Z" transform="translate(-311.834 -242.4)" fill="#05164d"/>
        <path id="Path_1278" data-name="Path 1278" d="M221.781,185.2h0a.353.353,0,0,0-.353-.353h-.01a4.234,4.234,0,0,0-2.993,1.24L207.9,196.618a4.2,4.2,0,0,0-.415.483l-4.75,6.446v.353h.353l6.446-4.75a4.235,4.235,0,0,0,.482-.415l10.529-10.529a4.232,4.232,0,0,0,1.24-2.993Zm-.794,1.731a1.788,1.788,0,0,1-.14.158,1.517,1.517,0,0,0,.207-1.378.33.33,0,0,0-.136-.136,1.466,1.466,0,0,0-1.344.185l-.032.021,0,0q.038-.038.077-.073a1.775,1.775,0,0,1,1.427-.433.364.364,0,0,1,.31.31,1.775,1.775,0,0,1-.366,1.346Z" transform="translate(-188.473 -175.311)" fill="#05164d"/>
        <path id="Path_1279" data-name="Path 1279" d="M398.761,192.383a1.466,1.466,0,0,1,1.344-.185A1.466,1.466,0,0,0,398.761,192.383Z" transform="translate(-367.948 -181.621)" fill="#05164d"/>
        <path id="Path_1280" data-name="Path 1280" d="M414.407,193.311a.33.33,0,0,1,.136.136A.329.329,0,0,0,414.407,193.311Z" transform="translate(-382.269 -182.736)" fill="#05164d"/>
        <path id="Path_1281" data-name="Path 1281" d="M398.425,195.459l-.032.021Z" transform="translate(-367.574 -184.706)" fill="#05164d"/>
        <path id="Path_1282" data-name="Path 1282" d="M417.384,190.514a.364.364,0,0,0-.2-.275.364.364,0,0,1,.2.275,1.783,1.783,0,0,1-.074.807A1.779,1.779,0,0,0,417.384,190.514Z" transform="translate(-384.822 -179.928)" fill="#05164d"/>
      </g>
    </g>
    <g id="Ellipse_167" data-name="Ellipse 167" transform="translate(8411 -2026)" fill="none" stroke="#05164d" stroke-width="1">
      <circle cx="20" cy="20" r="20" stroke="none"/>
      <circle cx="20" cy="20" r="19.5" fill="none"/>
    </g>
  </g>
</svg>
