<svg xmlns="http://www.w3.org/2000/svg" xmlns:xlink="http://www.w3.org/1999/xlink" width="6" height="24.144" viewBox="0 0 6 24.144">
  <defs>
    <clipPath id="clip-path">
      <path id="Mask" d="M3,24.144a2.9,2.9,0,0,1-2.119-.882,3.068,3.068,0,0,1,0-4.306A2.9,2.9,0,0,1,3,18.073a2.9,2.9,0,0,1,2.117.882,3.068,3.068,0,0,1,0,4.306A2.9,2.9,0,0,1,3,24.144Zm0-9.036a2.9,2.9,0,0,1-2.119-.882,3.071,3.071,0,0,1,0-4.308A2.9,2.9,0,0,1,3,9.036a2.9,2.9,0,0,1,2.117.882,3.071,3.071,0,0,1,0,4.308A2.9,2.9,0,0,1,3,15.109ZM3,6.071A2.9,2.9,0,0,1,.882,5.189,2.942,2.942,0,0,1,0,3.036,2.942,2.942,0,0,1,.882.882,2.9,2.9,0,0,1,3,0,2.9,2.9,0,0,1,5.118.882,2.936,2.936,0,0,1,6,3.036a2.936,2.936,0,0,1-.882,2.153A2.9,2.9,0,0,1,3,6.071Z" fill="#333"/>
    </clipPath>
  </defs>
  <g id="Icon_More" data-name="Icon/More" transform="translate(0)">
    <g id="Group" transform="translate(0)">
      <path id="Mask-2" data-name="Mask" d="M3,24.144a2.9,2.9,0,0,1-2.119-.882,3.068,3.068,0,0,1,0-4.306A2.9,2.9,0,0,1,3,18.073a2.9,2.9,0,0,1,2.117.882,3.068,3.068,0,0,1,0,4.306A2.9,2.9,0,0,1,3,24.144Zm0-9.036a2.9,2.9,0,0,1-2.119-.882,3.071,3.071,0,0,1,0-4.308A2.9,2.9,0,0,1,3,9.036a2.9,2.9,0,0,1,2.117.882,3.071,3.071,0,0,1,0,4.308A2.9,2.9,0,0,1,3,15.109ZM3,6.071A2.9,2.9,0,0,1,.882,5.189,2.942,2.942,0,0,1,0,3.036,2.942,2.942,0,0,1,.882.882,2.9,2.9,0,0,1,3,0,2.9,2.9,0,0,1,5.118.882,2.936,2.936,0,0,1,6,3.036a2.936,2.936,0,0,1-.882,2.153A2.9,2.9,0,0,1,3,6.071Z" fill="#333"/>
      <g id="Group-2" data-name="Group" clip-path="url(#clip-path)">
        <g id="_icon-color" data-name="↳🎨icon-color" transform="translate(-77.333 -70.5)">
          <rect id="Icon-Shade" width="163.271" height="163.271" transform="translate(0 0)" fill="#333"/>
        </g>
      </g>
    </g>
  </g>
</svg>
