<svg xmlns="http://www.w3.org/2000/svg" width="33.303" height="21.193" viewBox="0 0 33.303 21.193"><defs><style>.a{fill:#fff;}</style></defs><path class="a" d="M23.707,14.083a4.541,4.541,0,1,0-4.541-4.541A4.522,4.522,0,0,0,23.707,14.083Zm-12.11,0A4.541,4.541,0,1,0,7.055,9.541,4.522,4.522,0,0,0,11.6,14.083Zm0,3.028c-3.527,0-10.6,1.771-10.6,5.3v3.784H22.193V22.409C22.193,18.881,15.124,17.11,11.6,17.11Zm12.11,0c-.439,0-.939.03-1.468.076a6.388,6.388,0,0,1,2.982,5.223v3.784H34.3V22.409C34.3,18.881,27.234,17.11,23.707,17.11Z" transform="translate(-1 -5)"/></svg>