<svg xmlns="http://www.w3.org/2000/svg" width="33.691" height="37.5" viewBox="0 0 33.691 37.5"><defs><style>.a{fill:#05164d;}</style></defs><g transform="translate(0)"><path class="a" d="M244.282,284.395h-1.831v-3.117A1.278,1.278,0,0,0,241.174,280h-5.5a1.278,1.278,0,0,0-1.277,1.277v3.117h-1.831A2.566,2.566,0,0,0,230,286.958v7.324a2.566,2.566,0,0,0,2.563,2.563h11.719a2.566,2.566,0,0,0,2.563-2.563v-7.324A2.566,2.566,0,0,0,244.282,284.395Zm-7.69-2.2h3.662v2.2h-3.662Zm0,0" transform="translate(-213.154 -259.492)"/><path class="a" d="M39.395,8.789A4.395,4.395,0,1,0,35,4.395,4.4,4.4,0,0,0,39.395,8.789Zm0,0" transform="translate(-32.436)"/><path class="a" d="M11.582,124.078a6.58,6.58,0,0,1-9.248,0A6.942,6.942,0,0,0,0,129.272v8.936a1.1,1.1,0,0,0,1.1,1.1H2.2v12.085a1.1,1.1,0,0,0,1.1,1.1H10.62a1.1,1.1,0,0,0,1.1-1.1V139.307h1.1a1.1,1.1,0,0,0,1.1-1.1v-8.936A6.942,6.942,0,0,0,11.582,124.078Zm0,0" transform="translate(0 -114.99)"/></g></svg>