<svg xmlns="http://www.w3.org/2000/svg" width="27.5" height="22" viewBox="0 0 27.5 22"><defs><style>.a{fill:#fff;}</style></defs><path class="a" d="M14.375,21.875h2.75V20.5H18.5a1.379,1.379,0,0,0,1.375-1.375V15A1.379,1.379,0,0,0,18.5,13.625H14.375V12.25h5.5V9.5h-2.75V8.125h-2.75V9.5H13a1.379,1.379,0,0,0-1.375,1.375V15A1.379,1.379,0,0,0,13,16.375h4.125V17.75h-5.5V20.5h2.75ZM26.75,4h-22A2.729,2.729,0,0,0,2.014,6.75L2,23.25A2.74,2.74,0,0,0,4.75,26h22a2.74,2.74,0,0,0,2.75-2.75V6.75A2.74,2.74,0,0,0,26.75,4Zm0,19.25h-22V6.75h22Z" transform="translate(-2 -4)"/></svg>