<svg xmlns="http://www.w3.org/2000/svg" width="37.701" height="37.598" viewBox="0 0 37.701 37.598"><defs><style>.a{fill:#05164d;}</style></defs><g transform="translate(0.003 -0.024)"><path class="a" d="M201.111,442.609l-3.616,6.629h1.553a.575.575,0,0,0,.431-.188l5.855-6.441.188-.211h1.085c.523.014.963.009,1.293,0a4,4,0,0,0,2.216-.453c.356-.233.362-.374.361-.407,0-.4-1.118-.652-1.333-.7l-3.8-.287-6.073-6.717a.417.417,0,0,0-.309-.144H197.5l3.649,7-5.891.168-1.639-2.044a.318.318,0,0,0-.261-.118l-1.3.07a.032.032,0,0,0-.026.046l1.149,2.217-1.351.343a.128.128,0,0,0-.011.246l1.339.473-.841,2.075a.168.168,0,0,0,.155.231h.631a.668.668,0,0,0,.494-.22l1.671-1.859Z" transform="translate(-177.755 -430.855)"/><rect class="a" width="1.405" height="0.591" transform="translate(6.996 10.493)"/><rect class="a" width="1.405" height="0.591" transform="translate(8.994 10.493)"/><rect class="a" width="1.405" height="0.591" transform="translate(10.927 10.493)"/><path class="a" d="M145.434,559.644l3.616,6.629H147.5a.582.582,0,0,1-.431-.188l-5.855-6.441-.188-.211h-1.085c-.523.014-.963.009-1.293,0a4,4,0,0,1-2.215-.453c-.356-.233-.362-.374-.361-.407.007-.4,1.118-.652,1.333-.7l3.8-.287,6.069-6.711a.416.416,0,0,1,.309-.144h1.464l-3.644,7,5.891.168,1.639-2.045a.318.318,0,0,1,.262-.118l1.3.057a.032.032,0,0,1,.026.046l-1.149,2.217,1.352.343a.128.128,0,0,1,.01.246l-1.339.473.841,2.075a.168.168,0,0,1-.155.231h-.635a.668.668,0,0,1-.494-.22l-1.661-1.859Z" transform="translate(-130.088 -531.079)"/><rect class="a" width="1.405" height="0.591" transform="translate(31.998 27.894) rotate(180)"/><rect class="a" width="1.405" height="0.591" transform="translate(30 27.894) rotate(180)"/><rect class="a" width="1.405" height="0.591" transform="translate(28.067 27.894) rotate(180)"/><path class="a" d="M101.184,446.181l-.782.8a18.769,18.769,0,0,1-1.694-1.823,19.046,19.046,0,0,1-2.648-4.31,19.684,19.684,0,0,1-1.293-11.576,18.754,18.754,0,0,1,3.448-7.635,19.54,19.54,0,0,1,15.7-7.513,17.916,17.916,0,0,1,9.3,2.772c.517.338.927.647,1.2.862l-.677.738c-.239-.167-.575-.4-.986-.651a19.132,19.132,0,0,0-3.664-1.812,16.025,16.025,0,0,0-5.388-.8,16.369,16.369,0,0,0-4.217.338,16.01,16.01,0,0,0-3.819,1.417,19.673,19.673,0,0,0-5.172,3.664,17.766,17.766,0,0,0-.122,24.692Z" transform="translate(-94.42 -414.1)"/><path class="a" d="M171.251,447.895l.782-.8a19.127,19.127,0,0,1,4.343,6.135,19.714,19.714,0,0,1,1.293,11.576,18.793,18.793,0,0,1-3.448,7.635,19.562,19.562,0,0,1-15.7,7.513,17.91,17.91,0,0,1-9.3-2.772c-.519-.338-.928-.647-1.2-.862l.677-.739c.239.167.575.4.986.649a19.119,19.119,0,0,0,3.664,1.813,16.03,16.03,0,0,0,5.388.8,16.33,16.33,0,0,0,4.218-.339,15.962,15.962,0,0,0,3.817-1.415,19.644,19.644,0,0,0,5.172-3.664,17.77,17.77,0,0,0,.124-24.692Z" transform="translate(-140.322 -442.33)"/></g></svg>