<svg xmlns="http://www.w3.org/2000/svg" width="26.299" height="21.472" viewBox="0 0 26.299 21.472"><defs><style>.a{fill:#05164d;}</style></defs><g transform="translate(112.949 -349.493) rotate(90)"><g transform="translate(349.493 86.65)"><g transform="translate(0 0)"><path class="a" d="M88.094,56.63l4.148-4.64c.2-.223.394-.44.591-.663H91.441l4.148,4.64c.2.223.394.44.591.663a.984.984,0,1,0,1.391-1.391L93.424,50.6c-.2-.223-.394-.44-.591-.663a.99.99,0,0,0-1.391,0l-4.148,4.64c-.2.223-.394.44-.591.663a1,1,0,0,0,0,1.391.99.99,0,0,0,1.391,0Z" transform="translate(-86.422 -49.65)"/><g transform="translate(4.731 0.245)"><path class="a" d="M158.5,54.37V74.979a.984.984,0,1,0,1.969,0V54.37a.984.984,0,0,0-1.969,0Z" transform="translate(-158.5 -53.385)"/></g></g><g transform="translate(10.042 3.474)"><g transform="translate(0 15.559)"><path class="a" d="M239.7,341.324l4.148,4.64c.2.223.394.44.591.663a.99.99,0,0,0,1.391,0l4.148-4.64c.2-.223.394-.44.591-.663a1,1,0,0,0,0-1.391.99.99,0,0,0-1.391,0l-4.148,4.64c-.2.223-.394.44-.591.663h1.391l-4.148-4.64c-.2-.223-.394-.44-.591-.663a.984.984,0,0,0-1.391,1.391Z" transform="translate(-239.422 -339.647)"/></g><g transform="translate(4.731)"><path class="a" d="M313.469,124.179V103.57a.984.984,0,0,0-1.969,0v20.608a.984.984,0,0,0,1.969,0Z" transform="translate(-311.5 -102.585)"/></g></g></g></g></svg>