<svg xmlns="http://www.w3.org/2000/svg" width="48.953" height="48.953" viewBox="0 0 48.953 48.953">
  <g id="twitter" transform="translate(-349 487)">
    <g id="whatsapp" transform="translate(349 -487)">
      <rect id="Rectangle_1413" data-name="Rectangle 1413" width="48.953" height="48.953" rx="6" fill="#03a9f4"/>
    </g>
    <path id="twitter-2" data-name="twitter" d="M34.583,51.326a14.781,14.781,0,0,1-4.085,1.12,7.05,7.05,0,0,0,3.119-3.919,14.168,14.168,0,0,1-4.5,1.716,7.089,7.089,0,0,0-12.264,4.848,7.3,7.3,0,0,0,.164,1.617A20.067,20.067,0,0,1,2.408,49.293a7.092,7.092,0,0,0,2.179,9.476,7,7,0,0,1-3.2-.873v.078a7.122,7.122,0,0,0,5.68,6.966,7.076,7.076,0,0,1-1.859.233,6.269,6.269,0,0,1-1.342-.121,7.157,7.157,0,0,0,6.625,4.939A14.246,14.246,0,0,1,1.7,73.014a13.279,13.279,0,0,1-1.7-.1A19.959,19.959,0,0,0,10.876,76.1c13.046,0,20.179-10.807,20.179-20.175,0-.313-.011-.616-.026-.916A14.144,14.144,0,0,0,34.583,51.326Z" transform="translate(356 -523)" fill="#fff"/>
  </g>
</svg>
