<svg xmlns="http://www.w3.org/2000/svg" width="19" height="15.438" viewBox="0 0 19 15.438"><defs><style>.a{fill:#03a9f4;}</style></defs><path class="a" d="M19,49.828a8.121,8.121,0,0,1-2.244.615,3.873,3.873,0,0,0,1.714-2.153,7.784,7.784,0,0,1-2.47.943A3.895,3.895,0,0,0,9.261,51.9a4.011,4.011,0,0,0,.09.888A11.025,11.025,0,0,1,1.323,48.71a3.9,3.9,0,0,0,1.2,5.206,3.847,3.847,0,0,1-1.76-.48v.043a3.913,3.913,0,0,0,3.121,3.827,3.888,3.888,0,0,1-1.021.128,3.444,3.444,0,0,1-.737-.066,3.932,3.932,0,0,0,3.64,2.713,7.827,7.827,0,0,1-4.83,1.661A7.3,7.3,0,0,1,0,61.689a10.966,10.966,0,0,0,5.976,1.748A11.01,11.01,0,0,0,17.062,52.353c0-.172-.006-.338-.014-.5A7.77,7.77,0,0,0,19,49.828Z" transform="translate(0 -48)"/></svg>