<svg xmlns="http://www.w3.org/2000/svg" width="22.217" height="17.204" viewBox="0 0 22.217 17.204"><defs><style>.a{fill:orange;}</style></defs><g transform="translate(1.586 3.337)"><path class="a" d="M25.089,28.705c-1.157.83-2.78,1.933-3.513,1.933a.247.247,0,0,1-.225-.085c-.3-.369-.218-1.661.241-3.84a.46.46,0,0,0-.831-.351c-1.58,2.356-2.3,2.85-2.632,2.85-.465,0-.938-1.338-1.407-3.978a.458.458,0,0,0-.426-.376v0h-.027v0a.459.459,0,0,0-.426.376c-.47,2.64-.943,3.978-1.408,3.978-.328,0-1.051-.494-2.631-2.85a.46.46,0,0,0-.831.351c.459,2.179.54,3.472.241,3.84-.033.041-.08.085-.225.085-.732,0-2.356-1.1-3.513-1.933a.46.46,0,0,0-.641.642,10.634,10.634,0,0,1,2.148,7.267.939.939,0,0,0-.015.167c0,.954,1.336,1.332,2.5,1.554a26.936,26.936,0,0,0,4.764.387h.1a26.972,26.972,0,0,0,4.764-.387c1.164-.222,2.5-.6,2.5-1.554a.941.941,0,0,0-.015-.167,10.636,10.636,0,0,1,2.147-7.267.46.46,0,0,0-.642-.642Zm-8.755,8.7h-.1a19.574,19.574,0,0,1-5.568-.625,19.543,19.543,0,0,1,5.568-.625h.1a19.544,19.544,0,0,1,5.567.625A19.567,19.567,0,0,1,16.334,37.405Z" transform="translate(-6.748 -24.855)"/></g><g transform="translate(9.73)"><circle class="a" cx="1.39" cy="1.39" r="1.39"/></g><g transform="translate(4.093 1.912)"><circle class="a" cx="1.159" cy="1.159" r="1.159"/></g><g transform="translate(15.734 1.912)"><circle class="a" cx="1.159" cy="1.159" r="1.159"/></g><g transform="translate(0 5.59)"><circle class="a" cx="0.781" cy="0.781" r="0.781"/></g><g transform="translate(20.655 5.59)"><circle class="a" cx="0.781" cy="0.781" r="0.781"/></g></svg>