<svg xmlns="http://www.w3.org/2000/svg" width="53.894" height="47.166" viewBox="0 0 53.894 47.166"><g transform="translate(-61.438 -128.154)"><g transform="translate(61.438 128.154)"><path d="M115.332,131.654a3.5,3.5,0,0,1-3.5,3.5H64.938a3.5,3.5,0,0,1-3.5-3.5h0a3.5,3.5,0,0,1,3.5-3.5h46.894a3.5,3.5,0,0,1,3.5,3.5Z" transform="translate(-61.438 -128.154)"/></g><g transform="translate(61.438 148.271)"><path d="M103.982,427.654a3.5,3.5,0,0,1-3.5,3.5H64.938a3.5,3.5,0,0,1-3.5-3.5h0a3.5,3.5,0,0,1,3.5-3.5h35.544a3.5,3.5,0,0,1,3.5,3.5Z" transform="translate(-61.438 -424.154)"/></g><g transform="translate(61.438 168.32)"><path d="M85.157,722.654a3.5,3.5,0,0,1-3.5,3.5H64.938a3.5,3.5,0,0,1-3.5-3.5h0a3.5,3.5,0,0,1,3.5-3.5H81.657a3.5,3.5,0,0,1,3.5,3.5Z" transform="translate(-61.438 -719.154)"/></g></g></svg>