<svg xmlns="http://www.w3.org/2000/svg" width="19" height="19" viewBox="0 0 19 19"><defs><style>.a{fill:#4caf50;}.b{fill:#fafafa;}</style></defs><path class="a" d="M9.5,0h0A9.494,9.494,0,0,0,1.809,15.068L.625,18.6,4.276,17.43A9.5,9.5,0,1,0,9.5,0Z"/><path class="b" d="M118.287,126.133a2.674,2.674,0,0,1-1.86,1.337c-.5.105-1.142.189-3.319-.713a11.87,11.87,0,0,1-4.718-4.166,5.409,5.409,0,0,1-1.125-2.857,3.024,3.024,0,0,1,.969-2.306,1.377,1.377,0,0,1,.969-.34c.117,0,.223.006.318.011.278.012.418.028.6.468.229.551.785,1.91.852,2.05a.564.564,0,0,1,.04.513,1.637,1.637,0,0,1-.307.435c-.14.161-.272.284-.412.457-.128.15-.272.311-.111.59a8.408,8.408,0,0,0,1.538,1.91,6.968,6.968,0,0,0,2.222,1.37.6.6,0,0,0,.668-.105,11.464,11.464,0,0,0,.74-.98.529.529,0,0,1,.68-.206c.256.089,1.61.758,1.888.9s.462.206.53.323A2.358,2.358,0,0,1,118.287,126.133Z" transform="translate(-103.27 -112.728)"/></svg>