<svg xmlns="http://www.w3.org/2000/svg" width="48.953" height="48.953" viewBox="0 0 48.953 48.953"><defs><style>.a{fill:#1bd741;}.b{fill:#fff;}</style></defs><rect class="a" width="48.953" height="48.953" rx="6"/><g transform="translate(7.357 7.339)"><path class="b" d="M68.494,102.6l2.4-8.516a17.09,17.09,0,1,1,6.385,6.256Zm9.232-5.371.523.32a14.193,14.193,0,1,0-4.569-4.467l.352.549-1.381,4.9Z" transform="translate(-68.494 -68.321)"/><path class="b" d="M151.439,152.888l-1.109-.06a1.342,1.342,0,0,0-.954.326,5.054,5.054,0,0,0-1.662,2.547c-.394,1.754.215,3.9,1.79,6.051a18,18,0,0,0,9.7,7.054,4.728,4.728,0,0,0,4-.5,3.581,3.581,0,0,0,1.558-2.274l.177-.827a.575.575,0,0,0-.322-.642l-3.749-1.728a.575.575,0,0,0-.7.171l-1.472,1.908a.421.421,0,0,1-.473.141A11.527,11.527,0,0,1,152,159.721a.426.426,0,0,1,.054-.475l1.407-1.627a.575.575,0,0,0,.094-.6l-1.616-3.781A.575.575,0,0,0,151.439,152.888Z" transform="translate(-139.101 -143.748)"/></g></svg>